<?xml version="1.0" encoding="UTF-8" standalone="no"?>
<svg
   xmlns:dc="http://purl.org/dc/elements/1.1/"
   xmlns:cc="http://creativecommons.org/ns#"
   xmlns:rdf="http://www.w3.org/1999/02/22-rdf-syntax-ns#"
   xmlns:svg="http://www.w3.org/2000/svg"
   xmlns="http://www.w3.org/2000/svg"
   xmlns:sodipodi="http://sodipodi.sourceforge.net/DTD/sodipodi-0.dtd"
   xmlns:inkscape="http://www.inkscape.org/namespaces/inkscape"
   version="1.1"
   id="svg1494"
   xml:space="preserve"
   width="963.03333"
   height="1122.52"
   viewBox="0 0 963.03333 1122.52"
   sodipodi:docname="cell-schema.svg"
   inkscape:version="1.0.2 (e86c870879, 2021-01-15, custom)"><metadata
     id="metadata1500"><rdf:RDF><cc:Work
         rdf:about=""><dc:format>image/svg+xml</dc:format><dc:type
           rdf:resource="http://purl.org/dc/dcmitype/StillImage" /><dc:title></dc:title></cc:Work></rdf:RDF></metadata><defs
     id="defs1498"><clipPath
       clipPathUnits="userSpaceOnUse"
       id="clipPath1524"><path
         d="M 0,841.89 H 722.275 V 0 H 0 Z"
         id="path1522" /></clipPath><clipPath
       clipPathUnits="userSpaceOnUse"
       id="clipPath1678"><path
         d="M 0,841.89 H 722.275 V 0 H 0 Z"
         id="path1676" /></clipPath><clipPath
       clipPathUnits="userSpaceOnUse"
       id="clipPath1860"><path
         d="M 0,841.89 H 722.275 V 0 H 0 Z"
         id="path1858" /></clipPath><clipPath
       clipPathUnits="userSpaceOnUse"
       id="clipPath1880"><path
         d="M 0,841.89 H 722.275 V 0 H 0 Z"
         id="path1878" /></clipPath></defs><sodipodi:namedview
     pagecolor="#ffffff"
     bordercolor="#666666"
     borderopacity="1"
     objecttolerance="10"
     gridtolerance="10"
     guidetolerance="10"
     inkscape:pageopacity="0"
     inkscape:pageshadow="2"
     inkscape:window-width="1857"
     inkscape:window-height="1064"
     id="namedview1496"
     showgrid="false"
     inkscape:zoom="0.74742542"
     inkscape:cx="481.51666"
     inkscape:cy="561.26001"
     inkscape:window-x="0"
     inkscape:window-y="0"
     inkscape:window-maximized="1"
     inkscape:current-layer="g1502" /><g
     id="g1502"
     inkscape:groupmode="layer"
     inkscape:label="cell-schema"
     transform="matrix(1.3333333,0,0,-1.3333333,0,1122.52)"><path
       d="m 573.164,365.89 h -174.85 v -129 h 174.85 z"
       style="fill:#fbfbfc;fill-opacity:1;fill-rule:nonzero;stroke:#dcdcdd;stroke-width:0.551;stroke-linecap:butt;stroke-linejoin:miter;stroke-miterlimit:4;stroke-dasharray:none;stroke-opacity:1"
       id="path1504" /><path
       d="M 573.164,620.362 H 193.365 V 515.915 h 379.799 z"
       style="fill:#fbfbfc;fill-opacity:1;fill-rule:nonzero;stroke:#dcdcdd;stroke-width:0.551;stroke-linecap:butt;stroke-linejoin:miter;stroke-miterlimit:4;stroke-dasharray:none;stroke-opacity:1"
       id="path1506" /><path
       d="M 573.164,789.189 H 193.365 V 653.682 h 379.799 z"
       style="fill:#fbfbfc;fill-opacity:1;fill-rule:nonzero;stroke:#dcdcdd;stroke-width:0.551;stroke-linecap:butt;stroke-linejoin:miter;stroke-miterlimit:4;stroke-dasharray:none;stroke-opacity:1"
       id="path1508" /><g
       id="g1510"
       transform="translate(195.1372,729.6455)"><path
         d="M 0,0 H 342.186"
         style="fill:none;stroke:#34539d;stroke-width:2;stroke-linecap:butt;stroke-linejoin:miter;stroke-miterlimit:4;stroke-dasharray:none;stroke-opacity:1"
         id="path1512" /></g><g
       id="g1514"
       transform="translate(258.7832,555.8916)"><path
         d="M 0,0 V 173.754"
         style="fill:none;stroke:#34539d;stroke-width:2;stroke-linecap:butt;stroke-linejoin:miter;stroke-miterlimit:4;stroke-dasharray:none;stroke-opacity:1"
         id="path1516" /></g><g
       id="g1518"><g
         id="g1520"
         clip-path="url(#clipPath1524)"><g
           id="g1526"
           transform="translate(283.084,540.9097)"><path
             d="m 0,0 -4.797,-0.384 -3.035,3.733 -2.176,-1.881 -7.817,7.818 c 1.237,1.503 1.981,3.428 1.981,5.527 0,2.173 -0.802,4.155 -2.118,5.681 l 7.71,7.71 0.076,-0.117 2.356,-1.42 3.023,3.743 4.797,-0.367 -2.626,4.031 -4.554,-1.907 1.74,5.104 -3.665,3.117 -0.245,-4.805 -4.097,-2.522 1.922,-2.922 -8.129,-8.128 c -1.395,0.95 -3.079,1.507 -4.895,1.507 -2.099,0 -4.024,-0.744 -5.528,-1.981 l -8.602,8.603 1.922,2.921 -4.098,2.522 -0.245,4.805 -3.665,-3.117 1.74,-5.104 -4.553,1.907 -2.626,-4.031 4.797,0.367 3.023,-3.743 2.354,1.42 0.077,0.117 8.33,-8.331 c -1.022,-1.427 -1.63,-3.17 -1.63,-5.06 0,-1.814 0.557,-3.499 1.507,-4.894 l -8.451,-8.45 -2.176,1.88 -3.035,-3.733 -4.797,0.384 2.613,-4.04 5.288,1.06 -2.486,-4.267 3.655,-3.129 0.261,4.803 4.106,2.51 -1.101,2.52 -0.606,0.523 8.246,8.247 c 1.526,-1.316 3.508,-2.118 5.68,-2.118 1.889,0 3.633,0.608 5.06,1.631 l 7.759,-7.76 -0.606,-0.523 -1.101,-2.52 4.105,-2.51 0.262,-4.803 3.654,3.129 -2.485,4.267 5.288,-1.06 z"
             style="fill:#34539d;fill-opacity:1;fill-rule:nonzero;stroke:none"
             id="path1528" /></g><g
           id="g1530"
           transform="translate(283.084,540.9097)"><path
             d="m 0,0 -4.797,-0.384 -3.035,3.733 -2.176,-1.881 -7.817,7.818 c 1.237,1.503 1.981,3.428 1.981,5.527 0,2.173 -0.802,4.155 -2.118,5.681 l 7.71,7.71 0.076,-0.117 2.356,-1.42 3.023,3.743 4.797,-0.367 -2.626,4.031 -4.554,-1.907 1.74,5.104 -3.665,3.117 -0.245,-4.805 -4.097,-2.522 1.922,-2.922 -8.129,-8.128 c -1.395,0.95 -3.079,1.507 -4.895,1.507 -2.099,0 -4.024,-0.744 -5.528,-1.981 l -8.602,8.603 1.922,2.921 -4.098,2.522 -0.245,4.805 -3.665,-3.117 1.74,-5.104 -4.553,1.907 -2.626,-4.031 4.797,0.367 3.023,-3.743 2.354,1.42 0.077,0.117 8.33,-8.331 c -1.022,-1.427 -1.63,-3.17 -1.63,-5.06 0,-1.814 0.557,-3.499 1.507,-4.894 l -8.451,-8.45 -2.176,1.88 -3.035,-3.733 -4.797,0.384 2.613,-4.04 5.288,1.06 -2.486,-4.267 3.655,-3.129 0.261,4.803 4.106,2.51 -1.101,2.52 -0.606,0.523 8.246,8.247 c 1.526,-1.316 3.508,-2.118 5.68,-2.118 1.889,0 3.633,0.608 5.06,1.631 l 7.759,-7.76 -0.606,-0.523 -1.101,-2.52 4.105,-2.51 0.262,-4.803 3.654,3.129 -2.485,4.267 5.288,-1.06 z"
             style="fill:none;stroke:#1a171b;stroke-width:0.512;stroke-linecap:butt;stroke-linejoin:miter;stroke-miterlimit:4;stroke-dasharray:none;stroke-opacity:1"
             id="path1532" /></g><g
           id="g1534"
           transform="translate(484.1621,724.0342)"><path
             d="m 0,0 -12.154,4.863 12.049,4.97 z"
             style="fill:#1a171b;fill-opacity:1;fill-rule:nonzero;stroke:none"
             id="path1536" /></g><g
           id="g1538"
           transform="translate(484.1621,724.0342)"><path
             d="m 0,0 -12.154,4.863 12.049,4.97 z"
             style="fill:none;stroke:#1a171b;stroke-width:0.423;stroke-linecap:butt;stroke-linejoin:miter;stroke-miterlimit:4;stroke-dasharray:none;stroke-opacity:1"
             id="path1540" /></g><g
           id="g1542"
           transform="translate(524.5107,289.5391)"><path
             d="m 0,0 v 4.688 h -62.64 c -0.161,0.959 -0.417,1.885 -0.762,2.768 l 59.763,34.505 -2.343,4.059 -59.83,-34.543 c -2.579,3.011 -6.401,4.926 -10.676,4.926 -7.765,0 -14.061,-6.295 -14.061,-14.06 0,-7.766 6.296,-14.06 14.061,-14.06 3.801,0 7.245,1.515 9.775,3.966 l 60.731,-35.062 2.343,4.059 -60.288,34.807 c 0.614,1.225 1.053,2.55 1.287,3.947 z"
             style="fill:#00aebf;fill-opacity:1;fill-rule:nonzero;stroke:none"
             id="path1544" /></g><g
           id="g1546"
           transform="translate(524.5107,289.5391)"><path
             d="m 0,0 v 4.688 h -62.64 c -0.161,0.959 -0.417,1.885 -0.762,2.768 l 59.763,34.505 -2.343,4.059 -59.83,-34.543 c -2.579,3.011 -6.401,4.926 -10.676,4.926 -7.765,0 -14.061,-6.295 -14.061,-14.06 0,-7.766 6.296,-14.06 14.061,-14.06 3.801,0 7.245,1.515 9.775,3.966 l 60.731,-35.062 2.343,4.059 -60.288,34.807 c 0.614,1.225 1.053,2.55 1.287,3.947 z"
             style="fill:none;stroke:#34539d;stroke-width:0.512;stroke-linecap:butt;stroke-linejoin:miter;stroke-miterlimit:4;stroke-dasharray:none;stroke-opacity:1"
             id="path1548" /></g><g
           id="g1550"
           transform="translate(232.6704,534.7412)"><path
             d="M 0,0 -5.156,-12.034 6.878,-7.028 Z"
             style="fill:#1a171b;fill-opacity:1;fill-rule:nonzero;stroke:none"
             id="path1552" /></g><g
           id="g1554"
           transform="translate(232.6704,534.7412)"><path
             d="M 0,0 -5.156,-12.034 6.878,-7.028 Z"
             style="fill:none;stroke:#1a171b;stroke-width:2;stroke-linecap:butt;stroke-linejoin:miter;stroke-miterlimit:4;stroke-dasharray:none;stroke-opacity:1"
             id="path1556" /></g><g
           id="g1558"
           transform="translate(230.5693,524.9746)"><path
             d="M 0,0 -18.119,-18.119"
             style="fill:none;stroke:#1a171b;stroke-width:2;stroke-linecap:butt;stroke-linejoin:miter;stroke-miterlimit:4;stroke-dasharray:none;stroke-opacity:1"
             id="path1560" /></g><g
           id="g1562"
           transform="translate(462.6318,333.6309)"><path
             d="M 0,0 7.739,-12.408"
             style="fill:none;stroke:#1a171b;stroke-width:1.481;stroke-linecap:butt;stroke-linejoin:miter;stroke-miterlimit:4;stroke-dasharray:none;stroke-opacity:1"
             id="path1564" /></g><g
           id="g1566"
           transform="translate(529.4502,767.3789)"><path
             d="m 0,0 h -2.542 l 0.003,-34.864 h -1.546 l 0.002,36.38 h -2.54 l 0.001,-43.635 1.834,10e-4 0.003,-41.758 h -2.366 l 0.003,37.843 -2.541,-10e-4 10e-4,-43.833 2.45,0.001 0.001,-12.395 -8.699,-0.001 v 19.975 h 2.249 v 54.064 l 2.449,0.002 0.002,23.926 h -2.54 l 10e-4,-19.001 h -1.343 l 10e-4,41.486 -2.54,-0.002 0.002,-46.158 h 1.428 l 0.001,-49.843 h -1.956 v 25.715 h -2.538 v -31.706 h 2.246 v -26.344 l -7.88,-0.001 10e-4,8.598 2.397,0.001 0.002,65.864 -2.54,-10e-4 v -61.831 h -2.259 l 0.001,75.159 2.245,0.001 0.001,42.895 -2.539,-10e-4 v -37.958 h -2.109 l 0.002,37.959 -2.54,-10e-4 0.002,-42.895 2.397,0.001 0.002,-79.319 h 2.399 v -8.472 h -6.654 l 10e-4,39.735 2.349,0.001 v 36.056 l -2.538,-10e-4 v -31.327 h -2.265 l 0.003,33.609 h 2.193 l 0.002,45.909 -2.54,-10e-4 v -39.096 h -1.904 l 10e-4,25.012 -2.539,-0.001 v -33.402 l 2.246,10e-4 10e-4,-37.518 2.451,10e-4 0.002,-40.422 h 0.347 v -1.696 h 11.271 v -4.979 c -6.789,-0.719 -12.078,-6.46 -12.078,-13.439 0,-7.466 6.052,-13.519 13.519,-13.519 7.465,0 13.517,6.053 13.517,13.519 0,6.899 -5.171,12.58 -11.847,13.404 v 5.014 l 6.851,-0.001 v 0.15 l 0.567,0.001 v 8.523 l 10.563,-0.001 -10e-4,0.8 h 0.673 l 0.002,14.455 2.451,10e-4 0.002,49.264 h 2.244 z"
             style="fill:#f49e29;fill-opacity:1;fill-rule:nonzero;stroke:none"
             id="path1568" /></g><g
           id="g1570"
           transform="translate(529.4502,767.3789)"><path
             d="m 0,0 h -2.542 l 0.003,-34.864 h -1.546 l 0.002,36.38 h -2.54 l 0.001,-43.635 1.834,10e-4 0.003,-41.758 h -2.366 l 0.003,37.843 -2.541,-10e-4 10e-4,-43.833 2.45,0.001 0.001,-12.395 -8.699,-0.001 v 19.975 h 2.249 v 54.064 l 2.449,0.002 0.002,23.926 h -2.54 l 10e-4,-19.001 h -1.343 l 10e-4,41.486 -2.54,-0.002 0.002,-46.158 h 1.428 l 0.001,-49.843 h -1.956 v 25.715 h -2.538 v -31.706 h 2.246 v -26.344 l -7.88,-0.001 10e-4,8.598 2.397,0.001 0.002,65.864 -2.54,-10e-4 v -61.831 h -2.259 l 0.001,75.159 2.245,0.001 0.001,42.895 -2.539,-10e-4 v -37.958 h -2.109 l 0.002,37.959 -2.54,-10e-4 0.002,-42.895 2.397,0.001 0.002,-79.319 h 2.399 v -8.472 h -6.654 l 10e-4,39.735 2.349,0.001 v 36.056 l -2.538,-10e-4 v -31.327 h -2.265 l 0.003,33.609 h 2.193 l 0.002,45.909 -2.54,-10e-4 v -39.096 h -1.904 l 10e-4,25.012 -2.539,-0.001 v -33.402 l 2.246,10e-4 10e-4,-37.518 2.451,10e-4 0.002,-40.422 h 0.347 v -1.696 h 11.271 v -4.979 c -6.789,-0.719 -12.078,-6.46 -12.078,-13.439 0,-7.466 6.052,-13.519 13.519,-13.519 7.465,0 13.517,6.053 13.517,13.519 0,6.899 -5.171,12.58 -11.847,13.404 v 5.014 l 6.851,-0.001 v 0.15 l 0.567,0.001 v 8.523 l 10.563,-0.001 -10e-4,0.8 h 0.673 l 0.002,14.455 2.451,10e-4 0.002,49.264 h 2.244 z"
             style="fill:none;stroke:#1a171b;stroke-width:0.371;stroke-linecap:butt;stroke-linejoin:miter;stroke-miterlimit:4;stroke-dasharray:none;stroke-opacity:1"
             id="path1572" /></g><g
           id="g1574"
           transform="translate(504.1123,622.0112)"><path
             d="M 0,0 V -290.741"
             style="fill:none;stroke:#f49e29;stroke-width:2;stroke-linecap:butt;stroke-linejoin:miter;stroke-miterlimit:4;stroke-dasharray:none;stroke-opacity:1"
             id="path1576" /></g><g
           id="g1578"
           transform="translate(507.3594,334.4131)"><path
             d="m 0,0 c 0,-1.856 -1.506,-3.362 -3.364,-3.362 -1.858,0 -3.364,1.506 -3.364,3.362 0,1.858 1.506,3.364 3.364,3.364 C -1.506,3.364 0,1.858 0,0"
             style="fill:#1a171b;fill-opacity:1;fill-rule:nonzero;stroke:none"
             id="path1580" /></g><g
           id="g1582"
           transform="translate(507.3594,334.4131)"><path
             d="m 0,0 c 0,-1.856 -1.506,-3.362 -3.364,-3.362 -1.858,0 -3.364,1.506 -3.364,3.362 0,1.858 1.506,3.364 3.364,3.364 C -1.506,3.364 0,1.858 0,0 Z"
             style="fill:none;stroke:#1a171b;stroke-width:0.591;stroke-linecap:butt;stroke-linejoin:miter;stroke-miterlimit:4;stroke-dasharray:none;stroke-opacity:1"
             id="path1584" /></g><g
           id="g1586"
           transform="translate(541.6094,675.1787)"><path
             d="M 0,0 -2.963,-3.95"
             style="fill:none;stroke:#b52684;stroke-width:1.481;stroke-linecap:butt;stroke-linejoin:miter;stroke-miterlimit:4;stroke-dasharray:none;stroke-opacity:1"
             id="path1588" /></g><g
           id="g1590"
           transform="translate(479.3467,315.9219)"><path
             d="m 0,0 -10.289,8.096 1.722,-12.92 z"
             style="fill:#1a171b;fill-opacity:1;fill-rule:nonzero;stroke:none"
             id="path1592" /></g><g
           id="g1594"
           transform="translate(479.3467,315.9219)"><path
             d="m 0,0 -10.289,8.096 1.722,-12.92 z"
             style="fill:none;stroke:#1a171b;stroke-width:1.481;stroke-linecap:butt;stroke-linejoin:miter;stroke-miterlimit:4;stroke-dasharray:none;stroke-opacity:1"
             id="path1596" /></g><g
           id="g1598"
           transform="translate(438.7705,293.1299)"><path
             d="M 0,0 H -257.995"
             style="fill:#00aebf;fill-opacity:1;fill-rule:nonzero;stroke:#00aebf;stroke-width:2;stroke-linecap:butt;stroke-linejoin:miter;stroke-miterlimit:4;stroke-dasharray:none;stroke-opacity:1"
             id="path1600" /></g><g
           id="g1602"
           transform="translate(212.9097,333.1172)"><path
             d="M 0,0 V 174.76"
             style="fill:none;stroke:#1a171b;stroke-width:2;stroke-linecap:butt;stroke-linejoin:miter;stroke-miterlimit:4;stroke-dasharray:none;stroke-opacity:1"
             id="path1604" /></g><g
           id="g1606"
           transform="translate(180.7759,333.1172)"><path
             d="M 0,0 H 282.715"
             style="fill:none;stroke:#1a171b;stroke-width:2;stroke-linecap:butt;stroke-linejoin:miter;stroke-miterlimit:4;stroke-dasharray:none;stroke-opacity:1"
             id="path1608" /></g><g
           id="g1610"
           transform="translate(221.0083,405.0234)"><path
             d="M 0,0 V 38.142 L 8.243,25.305"
             style="fill:none;stroke:#1a171b;stroke-width:1;stroke-linecap:butt;stroke-linejoin:miter;stroke-miterlimit:4;stroke-dasharray:none;stroke-opacity:1"
             id="path1612" /></g><g
           id="g1614"
           transform="translate(250.4272,657.3096)"><path
             d="M 0,0 V 38.142 L -8.242,25.305"
             style="fill:none;stroke:#1a171b;stroke-width:1;stroke-linecap:butt;stroke-linejoin:miter;stroke-miterlimit:4;stroke-dasharray:none;stroke-opacity:1"
             id="path1616" /></g><g
           id="g1618"
           transform="translate(274.1914,724.4497)"><path
             d="M 0,0 H 38.142 L 25.305,-8.242"
             style="fill:none;stroke:#1a171b;stroke-width:1;stroke-linecap:butt;stroke-linejoin:miter;stroke-miterlimit:4;stroke-dasharray:none;stroke-opacity:1"
             id="path1620" /></g><g
           id="g1622"
           transform="translate(332.3335,286.8311)"><path
             d="m 0,0 h -38.142 l 12.838,-8.242"
             style="fill:none;stroke:#1a171b;stroke-width:1;stroke-linecap:butt;stroke-linejoin:miter;stroke-miterlimit:4;stroke-dasharray:none;stroke-opacity:1"
             id="path1624" /></g><g
           id="g1626"
           transform="translate(348.7412,575.8174)"><path
             d="M 0,0 H -59.962"
             style="fill:none;stroke:#73b220;stroke-width:2;stroke-linecap:butt;stroke-linejoin:miter;stroke-miterlimit:4;stroke-dasharray:none;stroke-opacity:1"
             id="path1628" /></g><g
           id="g1630"
           transform="translate(284.5605,575.8174)"><path
             d="m 0,0 c 0,-2.33 1.889,-4.218 4.218,-4.218 2.329,0 4.219,1.888 4.219,4.218 0,2.33 -1.89,4.218 -4.219,4.218 C 1.889,4.218 0,2.33 0,0"
             style="fill:#1a171b;fill-opacity:1;fill-rule:nonzero;stroke:none"
             id="path1632" /></g><g
           id="g1634"
           transform="translate(284.5605,575.8174)"><path
             d="m 0,0 c 0,-2.33 1.889,-4.218 4.218,-4.218 2.329,0 4.219,1.888 4.219,4.218 0,2.33 -1.89,4.218 -4.219,4.218 C 1.889,4.218 0,2.33 0,0 Z"
             style="fill:none;stroke:#1a171b;stroke-width:0.741;stroke-linecap:butt;stroke-linejoin:miter;stroke-miterlimit:4;stroke-dasharray:none;stroke-opacity:1"
             id="path1636" /></g><g
           id="g1638"
           transform="translate(347.9126,724.0342)"><path
             d="m 0,0 -12.155,4.863 12.049,4.97 z"
             style="fill:#1a171b;fill-opacity:1;fill-rule:nonzero;stroke:none"
             id="path1640" /></g><g
           id="g1642"
           transform="translate(347.9126,724.0342)"><path
             d="m 0,0 -12.155,4.863 12.049,4.97 z"
             style="fill:none;stroke:#1a171b;stroke-width:0.423;stroke-linecap:butt;stroke-linejoin:miter;stroke-miterlimit:4;stroke-dasharray:none;stroke-opacity:1"
             id="path1644" /></g><g
           id="g1646"
           transform="translate(362.5073,574.4048)"><path
             d="M 0,0 C 0,2.285 -0.725,4.396 -1.948,6.131 L 25.307,33.386 22.721,35.971 -4.533,8.717 c -0.972,0.684 -2.065,1.205 -3.237,1.538 v 155.831 h -4.189 V 10.578 c -1.786,-0.219 -3.436,-0.873 -4.837,-1.861 L -44.051,35.971 -46.636,33.386 -19.382,6.131 C -20.605,4.396 -21.33,2.284 -21.33,0 c 0,-2.285 0.725,-4.396 1.948,-6.132 l -27.254,-27.254 2.585,-2.586 27.254,27.254 c 1.736,-1.223 3.848,-1.948 6.132,-1.948 2.285,0 4.397,0.725 6.132,1.948 l 27.254,-27.254 2.586,2.586 -27.254,27.254 C -0.725,-4.397 0,-2.285 0,0"
             style="fill:#73b220;fill-opacity:1;fill-rule:nonzero;stroke:none"
             id="path1648" /></g><g
           id="g1650"
           transform="translate(362.5073,574.4048)"><path
             d="M 0,0 C 0,2.285 -0.725,4.396 -1.948,6.131 L 25.307,33.386 22.721,35.971 -4.533,8.717 c -0.972,0.684 -2.065,1.205 -3.237,1.538 v 155.831 h -4.189 V 10.578 c -1.786,-0.219 -3.436,-0.873 -4.837,-1.861 L -44.051,35.971 -46.636,33.386 -19.382,6.131 C -20.605,4.396 -21.33,2.284 -21.33,0 c 0,-2.285 0.725,-4.396 1.948,-6.132 l -27.254,-27.254 2.585,-2.586 27.254,27.254 c 1.736,-1.223 3.848,-1.948 6.132,-1.948 2.285,0 4.397,0.725 6.132,1.948 l 27.254,-27.254 2.586,2.586 -27.254,27.254 C -0.725,-4.397 0,-2.285 0,0 Z"
             style="fill:none;stroke:#1a171b;stroke-width:0.466;stroke-linecap:butt;stroke-linejoin:miter;stroke-miterlimit:4;stroke-dasharray:none;stroke-opacity:1"
             id="path1652" /></g><g
           id="g1654"
           transform="translate(330.0156,581.625)"><path
             d="m 0,0 h -28.403 l 9.56,6.138"
             style="fill:none;stroke:#1a171b;stroke-width:1;stroke-linecap:butt;stroke-linejoin:miter;stroke-miterlimit:4;stroke-dasharray:none;stroke-opacity:1"
             id="path1656" /></g><g
           id="g1658"
           transform="translate(496.6055,573.3672)"><path
             d="m 0,0 v -38.142 l -8.242,12.837"
             style="fill:none;stroke:#1a171b;stroke-width:1;stroke-linecap:butt;stroke-linejoin:miter;stroke-miterlimit:4;stroke-dasharray:none;stroke-opacity:1"
             id="path1660" /></g></g></g><text
       transform="matrix(1,0,0,-1,580.0376,643.6724)"
       style="font-variant:normal;font-weight:normal;font-stretch:normal;font-size:30px;font-family:Arial;-inkscape-font-specification:ArialMT;writing-mode:lr-tb;fill:#1a171b;fill-opacity:1;fill-rule:nonzero;stroke:none"
       id="text1670"><tspan
         x="0 15 31.68 41.669998 58.349998 75.029999 91.709999 98.370003 105.03 121.71"
         y="0"
         sodipodi:role="line"
         id="tspan1662">cerebellar</tspan><tspan
         x="25.02 40.02 56.700001 66.690002 75.029999 91.709999"
         y="36"
         sodipodi:role="line"
         id="tspan1664">cortex</tspan><tspan
         x="-0.20999999 14.79 31.469999 41.459999 58.139999 74.82 91.5 98.160004 104.82 121.5"
         y="348.06"
         sodipodi:role="line"
         id="tspan1666">cerebellar</tspan><tspan
         x="26.459999 43.139999 59.82 74.82 81.480003 98.160004"
         y="384.06"
         sodipodi:role="line"
         id="tspan1668">nuclei</tspan></text><g
       id="g1672"><g
         id="g1674"
         clip-path="url(#clipPath1678)"><path
           d="M 573.164,92.89 H 261.569 v -78 h 311.595 z"
           style="fill:#fbfbfc;fill-opacity:1;fill-rule:nonzero;stroke:#dcdcdd;stroke-width:0.551;stroke-linecap:butt;stroke-linejoin:miter;stroke-miterlimit:4;stroke-dasharray:none;stroke-opacity:1"
           id="path1680" /><g
           id="g1682"
           transform="translate(470.5244,50.7197)"><path
             d="M 0,0 0.154,11.064"
             style="fill:none;stroke:#1a171b;stroke-width:2.222;stroke-linecap:butt;stroke-linejoin:miter;stroke-miterlimit:4;stroke-dasharray:none;stroke-opacity:1"
             id="path1684" /></g><g
           id="g1686"
           transform="translate(474.3701,51.3164)"><path
             d="M 0,0 0.156,11.063"
             style="fill:none;stroke:#1a171b;stroke-width:2.222;stroke-linecap:butt;stroke-linejoin:miter;stroke-miterlimit:4;stroke-dasharray:none;stroke-opacity:1"
             id="path1688" /></g><g
           id="g1690"
           transform="translate(478.8506,51.3076)"><path
             d="M 0,0 0.156,11.063"
             style="fill:none;stroke:#1a171b;stroke-width:2.222;stroke-linecap:butt;stroke-linejoin:miter;stroke-miterlimit:4;stroke-dasharray:none;stroke-opacity:1"
             id="path1692" /></g><g
           id="g1694"
           transform="translate(483.333,51.2988)"><path
             d="M 0,0 0.156,11.063"
             style="fill:none;stroke:#1a171b;stroke-width:2.222;stroke-linecap:butt;stroke-linejoin:miter;stroke-miterlimit:4;stroke-dasharray:none;stroke-opacity:1"
             id="path1696" /></g><g
           id="g1698"
           transform="translate(487.2686,51.8076)"><path
             d="M 0,0 0.157,11.063"
             style="fill:none;stroke:#1a171b;stroke-width:2.222;stroke-linecap:butt;stroke-linejoin:miter;stroke-miterlimit:4;stroke-dasharray:none;stroke-opacity:1"
             id="path1700" /></g><g
           id="g1702"
           transform="translate(529.4541,704.873)"><path
             d="M 0,0 12.155,4.862 0.105,9.833 Z"
             style="fill:#1a171b;fill-opacity:1;fill-rule:nonzero;stroke:none"
             id="path1704" /></g><g
           id="g1706"
           transform="translate(529.4541,704.873)"><path
             d="M 0,0 12.155,4.862 0.105,9.833 Z"
             style="fill:none;stroke:#1a171b;stroke-width:0.423;stroke-linecap:butt;stroke-linejoin:miter;stroke-miterlimit:4;stroke-dasharray:none;stroke-opacity:1"
             id="path1708" /></g><g
           id="g1710"
           transform="translate(529.4541,689.0752)"><path
             d="M 0,0 12.155,4.863 0.105,9.833 Z"
             style="fill:#1a171b;fill-opacity:1;fill-rule:nonzero;stroke:none"
             id="path1712" /></g><g
           id="g1714"
           transform="translate(529.4541,689.0752)"><path
             d="M 0,0 12.155,4.863 0.105,9.833 Z"
             style="fill:none;stroke:#1a171b;stroke-width:0.423;stroke-linecap:butt;stroke-linejoin:miter;stroke-miterlimit:4;stroke-dasharray:none;stroke-opacity:1"
             id="path1716" /></g><g
           id="g1718"
           transform="translate(529.4541,677.2271)"><path
             d="M 0,0 12.155,4.863 0.105,9.833 Z"
             style="fill:#1a171b;fill-opacity:1;fill-rule:nonzero;stroke:none"
             id="path1720" /></g><g
           id="g1722"
           transform="translate(529.4541,677.2271)"><path
             d="M 0,0 12.155,4.863 0.105,9.833 Z"
             style="fill:none;stroke:#1a171b;stroke-width:0.423;stroke-linecap:butt;stroke-linejoin:miter;stroke-miterlimit:4;stroke-dasharray:none;stroke-opacity:1"
             id="path1724" /></g><g
           id="g1726"
           transform="translate(526.4922,666.3667)"><path
             d="M 0,0 12.154,4.862 0.105,9.833 Z"
             style="fill:#1a171b;fill-opacity:1;fill-rule:nonzero;stroke:none"
             id="path1728" /></g><g
           id="g1730"
           transform="translate(526.4922,666.3667)"><path
             d="M 0,0 12.154,4.862 0.105,9.833 Z"
             style="fill:none;stroke:#1a171b;stroke-width:0.423;stroke-linecap:butt;stroke-linejoin:miter;stroke-miterlimit:4;stroke-dasharray:none;stroke-opacity:1"
             id="path1732" /></g><g
           id="g1734"
           transform="translate(514.9609,661.4937)"><path
             d="M 0,0 4.862,-12.155 9.833,-0.106 Z"
             style="fill:#1a171b;fill-opacity:1;fill-rule:nonzero;stroke:none"
             id="path1736" /></g><g
           id="g1738"
           transform="translate(514.9609,661.4937)"><path
             d="M 0,0 4.862,-12.155 9.833,-0.106 Z"
             style="fill:none;stroke:#1a171b;stroke-width:0.423;stroke-linecap:butt;stroke-linejoin:miter;stroke-miterlimit:4;stroke-dasharray:none;stroke-opacity:1"
             id="path1740" /></g><g
           id="g1742"
           transform="translate(569.2139,52.2158)"><path
             d="m 0,0 h -10.64 c -1.117,6.647 -6.882,11.717 -13.848,11.717 -6.965,0 -12.733,-5.07 -13.85,-11.717 h -73.109 v -4.687 h 73.109 c 1.118,-6.647 6.885,-11.717 13.85,-11.717 6.965,0 12.731,5.07 13.848,11.717 l 10.64,0 z"
             style="fill:#b52684;fill-opacity:1;fill-rule:nonzero;stroke:none"
             id="path1744" /></g><g
           id="g1746"
           transform="translate(569.2139,52.2158)"><path
             d="m 0,0 h -10.64 c -1.117,6.647 -6.882,11.717 -13.848,11.717 -6.965,0 -12.733,-5.07 -13.85,-11.717 h -73.109 v -4.687 h 73.109 c 1.118,-6.647 6.885,-11.717 13.85,-11.717 6.965,0 12.731,5.07 13.848,11.717 l 10.64,0 z"
             style="fill:none;stroke:#1a171b;stroke-width:0.512;stroke-linecap:butt;stroke-linejoin:miter;stroke-miterlimit:4;stroke-dasharray:none;stroke-opacity:1"
             id="path1748" /></g><g
           id="g1750"
           transform="translate(388.7817,50.7197)"><path
             d="M 0,0 -0.155,11.064"
             style="fill:none;stroke:#1a171b;stroke-width:2.222;stroke-linecap:butt;stroke-linejoin:miter;stroke-miterlimit:4;stroke-dasharray:none;stroke-opacity:1"
             id="path1752" /></g><g
           id="g1754"
           transform="translate(384.936,51.3164)"><path
             d="M 0,0 -0.156,11.063"
             style="fill:none;stroke:#1a171b;stroke-width:2.222;stroke-linecap:butt;stroke-linejoin:miter;stroke-miterlimit:4;stroke-dasharray:none;stroke-opacity:1"
             id="path1756" /></g><g
           id="g1758"
           transform="translate(380.4551,51.3076)"><path
             d="M 0,0 -0.155,11.063"
             style="fill:none;stroke:#1a171b;stroke-width:2.222;stroke-linecap:butt;stroke-linejoin:miter;stroke-miterlimit:4;stroke-dasharray:none;stroke-opacity:1"
             id="path1760" /></g><g
           id="g1762"
           transform="translate(375.9736,51.2988)"><path
             d="M 0,0 -0.156,11.063"
             style="fill:none;stroke:#1a171b;stroke-width:2.222;stroke-linecap:butt;stroke-linejoin:miter;stroke-miterlimit:4;stroke-dasharray:none;stroke-opacity:1"
             id="path1764" /></g><g
           id="g1766"
           transform="translate(372.0376,51.8076)"><path
             d="M 0,0 -0.158,11.063"
             style="fill:none;stroke:#1a171b;stroke-width:2.222;stroke-linecap:butt;stroke-linejoin:miter;stroke-miterlimit:4;stroke-dasharray:none;stroke-opacity:1"
             id="path1768" /></g><g
           id="g1770"
           transform="translate(402.2803,52.2158)"><path
             d="m 0,0 h -73.109 c -1.118,6.647 -6.885,11.717 -13.85,11.717 -6.965,0 -12.731,-5.07 -13.849,-11.717 h -29.639 v -4.687 h 29.639 c 1.118,-6.647 6.884,-11.717 13.849,-11.717 6.965,0 12.732,5.07 13.85,11.717 l 73.109,0 z"
             style="fill:#b52684;fill-opacity:1;fill-rule:nonzero;stroke:none"
             id="path1772" /></g><g
           id="g1774"
           transform="translate(402.2803,52.2158)"><path
             d="m 0,0 h -73.109 c -1.118,6.647 -6.885,11.717 -13.85,11.717 -6.965,0 -12.731,-5.07 -13.849,-11.717 h -29.639 v -4.687 h 29.639 c 1.118,-6.647 6.884,-11.717 13.849,-11.717 6.965,0 12.732,5.07 13.85,11.717 l 73.109,0 z"
             style="fill:none;stroke:#1a171b;stroke-width:0.512;stroke-linecap:butt;stroke-linejoin:miter;stroke-miterlimit:4;stroke-dasharray:none;stroke-opacity:1"
             id="path1776" /></g><g
           id="g1778"
           transform="translate(509.8701,64.4336)"><path
             d="m 0,0 h -62.64 c -1.117,6.647 -6.883,11.717 -13.848,11.717 -6.965,0 -12.733,-5.07 -13.85,-11.717 h -73.109 v -4.686 h 73.109 c 1.117,-6.647 6.885,-11.717 13.85,-11.717 6.965,0 12.731,5.07 13.848,11.717 l 62.64,0 z"
             style="fill:#b52684;fill-opacity:1;fill-rule:nonzero;stroke:none"
             id="path1780" /></g><g
           id="g1782"
           transform="translate(509.8701,64.4336)"><path
             d="m 0,0 h -62.64 c -1.117,6.647 -6.883,11.717 -13.848,11.717 -6.965,0 -12.733,-5.07 -13.85,-11.717 h -73.109 v -4.686 h 73.109 c 1.117,-6.647 6.885,-11.717 13.85,-11.717 6.965,0 12.731,5.07 13.848,11.717 l 62.64,0 z"
             style="fill:none;stroke:#1a171b;stroke-width:0.512;stroke-linecap:butt;stroke-linejoin:miter;stroke-miterlimit:4;stroke-dasharray:none;stroke-opacity:1"
             id="path1784" /></g><g
           id="g1786"
           transform="translate(544.585,623.3965)"><path
             d="M 0,0 V -562.508"
             style="fill:#b52684;fill-opacity:1;fill-rule:nonzero;stroke:#b52684;stroke-width:2;stroke-linecap:butt;stroke-linejoin:miter;stroke-miterlimit:4;stroke-dasharray:none;stroke-opacity:1"
             id="path1788" /></g><g
           id="g1790"
           transform="translate(541.6094,709.7354)"><path
             d="M 0,0 V -34.997"
             style="fill:none;stroke:#b52684;stroke-width:2;stroke-linecap:butt;stroke-linejoin:miter;stroke-miterlimit:4;stroke-dasharray:none;stroke-opacity:1"
             id="path1792" /></g><g
           id="g1794"
           transform="translate(538.6465,671.229)"><path
             d="M 0,0 -18.732,-21.981"
             style="fill:none;stroke:#b52684;stroke-width:2;stroke-linecap:butt;stroke-linejoin:miter;stroke-miterlimit:4;stroke-dasharray:none;stroke-opacity:1"
             id="path1796" /></g><g
           id="g1798"
           transform="translate(544.585,623.3965)"><path
             d="M 0,0 -24.671,25.852"
             style="fill:none;stroke:#b52684;stroke-width:2;stroke-linecap:butt;stroke-linejoin:miter;stroke-miterlimit:4;stroke-dasharray:none;stroke-opacity:1"
             id="path1800" /></g><g
           id="g1802"
           transform="translate(544.293,281.2822)"><path
             d="M 0,0 -24.379,41.401"
             style="fill:none;stroke:#b52684;stroke-width:2;stroke-linecap:butt;stroke-linejoin:miter;stroke-miterlimit:4;stroke-dasharray:none;stroke-opacity:1"
             id="path1804" /></g><g
           id="g1806"
           transform="translate(512.7188,324.7617)"><path
             d="M 0,0 10.289,-8.095 8.568,4.825 Z"
             style="fill:#1a171b;fill-opacity:1;fill-rule:nonzero;stroke:none"
             id="path1808" /></g><g
           id="g1810"
           transform="translate(512.7188,324.7617)"><path
             d="M 0,0 10.289,-8.095 8.568,4.825 Z"
             style="fill:none;stroke:#1a171b;stroke-width:0.423;stroke-linecap:butt;stroke-linejoin:miter;stroke-miterlimit:4;stroke-dasharray:none;stroke-opacity:1"
             id="path1812" /></g><g
           id="g1814"
           transform="translate(552.7949,405.0234)"><path
             d="M 0,0 V 38.142 L 8.242,25.305"
             style="fill:none;stroke:#1a171b;stroke-width:1;stroke-linecap:butt;stroke-linejoin:miter;stroke-miterlimit:4;stroke-dasharray:none;stroke-opacity:1"
             id="path1816" /></g></g></g><text
       transform="matrix(1,0,0,-1,600.0552,72.5762)"
       style="font-variant:normal;font-weight:normal;font-stretch:normal;font-size:30px;font-family:Arial;-inkscape-font-specification:ArialMT;writing-mode:lr-tb;fill:#1a171b;fill-opacity:1;fill-rule:nonzero;stroke:none"
       id="text1822"><tspan
         x="0 6.6599998 23.34 31.68 48.360001 58.349998 65.010002 81.690002"
         y="0"
         sodipodi:role="line"
         id="tspan1818">inferior</tspan><tspan
         x="15 31.68 38.34 45 60"
         y="36"
         sodipodi:role="line"
         id="tspan1820">olive</tspan></text><text
       transform="matrix(1,0,0,-1,228.7598,487.8896)"
       style="font-variant:normal;font-weight:normal;font-stretch:normal;font-size:18px;font-family:Arial;-inkscape-font-specification:ArialMT;writing-mode:lr-tb;fill:#1a171b;fill-opacity:1;fill-rule:nonzero;stroke:none"
       id="text1852"><tspan
         x="0 10.008 16.002001 26.01 36.018002 46.026001 50.021999"
         y="0"
         sodipodi:role="line"
         id="tspan1824">granule</tspan><tspan
         x="16.524 25.524 35.532001 39.528"
         y="21.6"
         sodipodi:role="line"
         id="tspan1826">cell</tspan><tspan
         x="100.98 114.984 124.992 128.98801 138.996"
         y="0"
         sodipodi:role="line"
         id="tspan1828">Golgi</tspan><tspan
         x="108.486 117.486 127.494 131.49001"
         y="21.6"
         sodipodi:role="line"
         id="tspan1830">cell</tspan><tspan
         x="163.44 172.44 177.444 187.452 191.448 195.444 205.452 210.45599 220.464"
         y="-327.00601"
         sodipodi:role="line"
         id="tspan1832">stellate/</tspan><tspan
         x="167.94 177.948 187.95599 196.95599 205.95599 215.964"
         y="-305.40601"
         sodipodi:role="line"
         id="tspan1834">basket</tspan><tspan
         x="180.95399 189.95399 199.96201 203.95799"
         y="-283.806"
         sodipodi:role="line"
         id="tspan1836">cell</tspan><tspan
         x="246.09599 258.10199 268.10999 274.104 283.104 287.10001 297.108 301.104"
         y="-327.00601"
         sodipodi:role="line"
         id="tspan1838">Purkinje</tspan><tspan
         x="265.104 274.104 284.112 288.108"
         y="-305.40601"
         sodipodi:role="line"
         id="tspan1840">cell</tspan><tspan
         x="-173.34 -161.334 -155.34 -145.332 -139.338 -130.338 -120.33 -114.336 -104.328 -94.32 -84.311996 -80.316002 -76.32 -66.311996 -60.318001"
         y="138.834"
         sodipodi:role="line"
         id="tspan1842">Pre-cerebellar </tspan><tspan
         x="-137.826 -127.818 -117.81 -108.81 -104.814 -94.806"
         y="160.43401"
         sodipodi:role="line"
         id="tspan1844">nuclei</tspan><tspan
         x="-177.336 -165.33 -155.32201 -146.32201 -141.31799 -135.32401 -126.324 -116.316 -110.322 -100.314 -90.306 -80.297997 -76.302002 -72.306 -62.298 -56.304001"
         y="201.06"
         sodipodi:role="line"
         id="tspan1846">Post-cerebellar </tspan><tspan
         x="-137.826 -127.818 -117.81 -108.81 -104.814 -94.806"
         y="222.66"
         sodipodi:role="line"
         id="tspan1848">nuclei</tspan><tspan
         x="-187.812 -181.81799 -166.82401 -156.81599 -147.81599 -142.812 -138.81599 -129.81599 -124.812 -114.804 -108.81 -98.802002 -92.807999 -77.814003 -67.806 -62.801998 -52.793999 -46.799999"
         y="244.25999"
         sodipodi:role="line"
         id="tspan1850">(mostly pre-motor)</tspan></text><g
       id="g1854"><g
         id="g1856"
         clip-path="url(#clipPath1860)"><g
           id="g1862"
           transform="translate(7.6074,833.8896)"><path
             d="M 0,0 V -3.062"
             style="fill:none;stroke:#1a171b;stroke-width:0.591;stroke-linecap:butt;stroke-linejoin:miter;stroke-miterlimit:4;stroke-dasharray:none;stroke-opacity:1"
             id="path1864" /></g></g></g><g
       id="g1866"
       transform="translate(419.4126,724.0342)"><path
         d="m 0,0 -12.155,4.863 12.049,4.97 z"
         style="fill:#1a171b;fill-opacity:1;fill-rule:nonzero;stroke:none"
         id="path1868" /></g><g
       id="g1870"
       transform="translate(419.4126,724.0342)"><path
         d="m 0,0 -12.155,4.863 12.049,4.97 z"
         style="fill:none;stroke:#1a171b;stroke-width:0.423;stroke-linecap:butt;stroke-linejoin:miter;stroke-miterlimit:4;stroke-dasharray:none;stroke-opacity:1"
         id="path1872" /></g><g
       id="g1874"><g
         id="g1876"
         clip-path="url(#clipPath1880)"><g
           id="g1882"
           transform="translate(418.6899,681.1489)"><path
             d="M 0,0 C 65.472,3.943 58.968,-60.567 79.609,-62"
             style="fill:none;stroke:#9f7742;stroke-width:2;stroke-linecap:butt;stroke-linejoin:miter;stroke-miterlimit:4;stroke-dasharray:none;stroke-opacity:1"
             id="path1884" /></g><g
           id="g1886"
           transform="translate(485.7236,633.4595)"><path
             d="m 0,0 c 0,-1.222 0.991,-2.213 2.214,-2.213 1.222,0 2.213,0.991 2.213,2.213 0,1.222 -0.991,2.212 -2.213,2.212 C 0.991,2.212 0,1.222 0,0"
             style="fill:#1a171b;fill-opacity:1;fill-rule:nonzero;stroke:none"
             id="path1888" /></g><g
           id="g1890"
           transform="translate(485.7236,633.4595)"><path
             d="m 0,0 c 0,-1.222 0.991,-2.213 2.214,-2.213 1.222,0 2.213,0.991 2.213,2.213 0,1.222 -0.991,2.212 -2.213,2.212 C 0.991,2.212 0,1.222 0,0 Z"
             style="fill:none;stroke:#1a171b;stroke-width:0.741;stroke-linecap:butt;stroke-linejoin:miter;stroke-miterlimit:4;stroke-dasharray:none;stroke-opacity:1"
             id="path1892" /></g><g
           id="g1894"
           transform="translate(489.1514,625.6099)"><path
             d="m 0,0 c 0,-1.222 0.991,-2.213 2.214,-2.213 1.222,0 2.213,0.991 2.213,2.213 0,1.222 -0.991,2.212 -2.213,2.212 C 0.991,2.212 0,1.222 0,0"
             style="fill:#1a171b;fill-opacity:1;fill-rule:nonzero;stroke:none"
             id="path1896" /></g><g
           id="g1898"
           transform="translate(489.1514,625.6099)"><path
             d="m 0,0 c 0,-1.222 0.991,-2.213 2.214,-2.213 1.222,0 2.213,0.991 2.213,2.213 0,1.222 -0.991,2.212 -2.213,2.212 C 0.991,2.212 0,1.222 0,0 Z"
             style="fill:none;stroke:#1a171b;stroke-width:0.741;stroke-linecap:butt;stroke-linejoin:miter;stroke-miterlimit:4;stroke-dasharray:none;stroke-opacity:1"
             id="path1900" /></g><g
           id="g1902"
           transform="translate(496.085,620.3623)"><path
             d="m 0,0 c 0,-1.222 0.991,-2.213 2.214,-2.213 1.222,0 2.213,0.991 2.213,2.213 0,1.222 -0.991,2.212 -2.213,2.212 C 0.991,2.212 0,1.222 0,0"
             style="fill:#1a171b;fill-opacity:1;fill-rule:nonzero;stroke:none"
             id="path1904" /></g><g
           id="g1906"
           transform="translate(496.085,620.3623)"><path
             d="m 0,0 c 0,-1.222 0.991,-2.213 2.214,-2.213 1.222,0 2.213,0.991 2.213,2.213 0,1.222 -0.991,2.212 -2.213,2.212 C 0.991,2.212 0,1.222 0,0 Z"
             style="fill:none;stroke:#1a171b;stroke-width:0.741;stroke-linecap:butt;stroke-linejoin:miter;stroke-miterlimit:4;stroke-dasharray:none;stroke-opacity:1"
             id="path1908" /></g><g
           id="g1910"
           transform="translate(429.8848,676.4961)"><path
             d="M 0,0 C 1.081,1.534 1.721,3.4 1.721,5.418 1.721,7.437 1.081,9.302 0,10.835 L 14.364,25.198 12.077,27.484 -2.285,13.121 c -0.86,0.605 -1.824,1.066 -2.86,1.359 V 63.199 H -8.847 V 14.766 c -1.578,-0.193 -3.036,-0.771 -4.275,-1.644 l -15.256,15.255 -2.285,-2.286 15.255,-15.255 c -1.081,-1.533 -1.721,-3.399 -1.721,-5.418 0,-2.019 0.64,-3.886 1.721,-5.419 l -14.578,-14.579 2.284,-2.286 14.579,14.579 c 1.534,-1.081 3.4,-1.722 5.418,-1.722 2.019,0 3.887,0.641 5.42,1.722 l 14.643,-14.643 2.288,2.285 z"
             style="fill:#9f7742;fill-opacity:1;fill-rule:nonzero;stroke:none"
             id="path1912" /></g><g
           id="g1914"
           transform="translate(429.8848,676.4961)"><path
             d="M 0,0 C 1.081,1.534 1.721,3.4 1.721,5.418 1.721,7.437 1.081,9.302 0,10.835 L 14.364,25.198 12.077,27.484 -2.285,13.121 c -0.86,0.605 -1.824,1.066 -2.86,1.359 V 63.199 H -8.847 V 14.766 c -1.578,-0.193 -3.036,-0.771 -4.275,-1.644 l -15.256,15.255 -2.285,-2.286 15.255,-15.255 c -1.081,-1.533 -1.721,-3.399 -1.721,-5.418 0,-2.019 0.64,-3.886 1.721,-5.419 l -14.578,-14.579 2.284,-2.286 14.579,14.579 c 1.534,-1.081 3.4,-1.722 5.418,-1.722 2.019,0 3.887,0.641 5.42,1.722 l 14.643,-14.643 2.288,2.285 z"
             style="fill:none;stroke:#1a171b;stroke-width:0.466;stroke-linecap:butt;stroke-linejoin:miter;stroke-miterlimit:4;stroke-dasharray:none;stroke-opacity:1"
             id="path1916" /></g></g></g><text
       transform="matrix(1,0,0,-1,554.9385,507.877)"
       style="font-variant:normal;font-weight:normal;font-stretch:normal;font-size:18px;font-family:Arial;-inkscape-font-specification:ArialMT;writing-mode:lr-tb;fill:#1a171b;fill-opacity:1;fill-rule:nonzero;stroke:none"
       id="text1926"><tspan
         x="0 9 12.996 16.992001 31.986 41.993999 45.990002 55.998001"
         y="0"
         sodipodi:role="line"
         id="tspan1918">climbing</tspan><tspan
         x="15.498 20.502001 24.497999 34.506001 44.514"
         y="21.6"
         sodipodi:role="line"
         id="tspan1920">fiber</tspan><tspan
         x="-362.952 -352.944 -342.936 -336.94199 -326.93399 -322.93799 -318.94199 -308.93399"
         y="-250.38"
         sodipodi:role="line"
         id="tspan1922">parallel</tspan><tspan
         x="-351.45001 -346.44601 -342.45001 -332.44199 -322.43399"
         y="-228.78"
         sodipodi:role="line"
         id="tspan1924">fiber</tspan></text></g></svg>
