<?xml version="1.0" encoding="UTF-8" standalone="no"?>
<svg
   xmlns:dc="http://purl.org/dc/elements/1.1/"
   xmlns:cc="http://creativecommons.org/ns#"
   xmlns:rdf="http://www.w3.org/1999/02/22-rdf-syntax-ns#"
   xmlns:svg="http://www.w3.org/2000/svg"
   xmlns="http://www.w3.org/2000/svg"
   xmlns:sodipodi="http://sodipodi.sourceforge.net/DTD/sodipodi-0.dtd"
   xmlns:inkscape="http://www.inkscape.org/namespaces/inkscape"
   version="1.1"
   id="svg1198"
   xml:space="preserve"
   width="793.70667"
   height="1122.52"
   viewBox="0 0 793.70667 1122.52"
   sodipodi:docname="cerbellar-schema.svg"
   inkscape:version="1.0.2 (e86c870879, 2021-01-15, custom)"><metadata
     id="metadata1204"><rdf:RDF><cc:Work
         rdf:about=""><dc:format>image/svg+xml</dc:format><dc:type
           rdf:resource="http://purl.org/dc/dcmitype/StillImage" /><dc:title></dc:title></cc:Work></rdf:RDF></metadata><defs
     id="defs1202"><clipPath
       clipPathUnits="userSpaceOnUse"
       id="clipPath1230"><path
         d="M 0,841.89 H 595.28 V 0 H 0 Z"
         id="path1228" /></clipPath><clipPath
       clipPathUnits="userSpaceOnUse"
       id="clipPath1436"><path
         d="M 0,841.89 H 595.28 V 0 H 0 Z"
         id="path1434" /></clipPath></defs><sodipodi:namedview
     pagecolor="#ffffff"
     bordercolor="#666666"
     borderopacity="1"
     objecttolerance="10"
     gridtolerance="10"
     guidetolerance="10"
     inkscape:pageopacity="0"
     inkscape:pageshadow="2"
     inkscape:window-width="925"
     inkscape:window-height="1064"
     id="namedview1200"
     showgrid="false"
     inkscape:zoom="0.74742542"
     inkscape:cx="396.85333"
     inkscape:cy="561.26001"
     inkscape:window-x="0"
     inkscape:window-y="0"
     inkscape:window-maximized="1"
     inkscape:current-layer="g1206" /><g
     id="g1206"
     inkscape:groupmode="layer"
     inkscape:label="cerbellar-schema"
     transform="matrix(1.3333333,0,0,-1.3333333,0,1122.52)"><path
       d="M 487.539,595.362 H 65.74 V 490.915 h 421.799 z"
       style="fill:#fbfbfc;fill-opacity:1;fill-rule:nonzero;stroke:#dcdcdd;stroke-width:0.551;stroke-linecap:butt;stroke-linejoin:miter;stroke-miterlimit:4;stroke-dasharray:none;stroke-opacity:1"
       id="path1208" /><path
       d="M 487.539,764.189 H 65.74 V 628.682 h 421.799 z"
       style="fill:#fbfbfc;fill-opacity:1;fill-rule:nonzero;stroke:#dcdcdd;stroke-width:0.551;stroke-linecap:butt;stroke-linejoin:miter;stroke-miterlimit:4;stroke-dasharray:none;stroke-opacity:1"
       id="path1210" /><g
       id="g1212"
       transform="translate(67.5122,704.6455)"><path
         d="M 0,0 H 384.186"
         style="fill:none;stroke:#34539d;stroke-width:2;stroke-linecap:butt;stroke-linejoin:miter;stroke-miterlimit:4;stroke-dasharray:none;stroke-opacity:1"
         id="path1214" /></g><g
       id="g1216"
       transform="translate(173.1582,530.8916)"><path
         d="M 0,0 V 173.754"
         style="fill:none;stroke:#34539d;stroke-width:2;stroke-linecap:butt;stroke-linejoin:miter;stroke-miterlimit:4;stroke-dasharray:none;stroke-opacity:1"
         id="path1218" /></g><g
       id="g1220"
       transform="translate(263.1162,550.8174)"><path
         d="M 0,0 H -59.962"
         style="fill:none;stroke:#73b220;stroke-width:2;stroke-linecap:butt;stroke-linejoin:miter;stroke-miterlimit:4;stroke-dasharray:none;stroke-opacity:1"
         id="path1222" /></g><g
       id="g1224"><g
         id="g1226"
         clip-path="url(#clipPath1230)"><g
           id="g1232"
           transform="translate(198.9355,550.8174)"><path
             d="m 0,0 c 0,-2.33 1.889,-4.218 4.218,-4.218 2.329,0 4.219,1.888 4.219,4.218 0,2.33 -1.89,4.218 -4.219,4.218 C 1.889,4.218 0,2.33 0,0"
             style="fill:#1a171b;fill-opacity:1;fill-rule:nonzero;stroke:none"
             id="path1234" /></g><g
           id="g1236"
           transform="translate(198.9355,550.8174)"><path
             d="m 0,0 c 0,-2.33 1.889,-4.218 4.218,-4.218 2.329,0 4.219,1.888 4.219,4.218 0,2.33 -1.89,4.218 -4.219,4.218 C 1.889,4.218 0,2.33 0,0 Z"
             style="fill:none;stroke:#1a171b;stroke-width:0.741;stroke-linecap:butt;stroke-linejoin:miter;stroke-miterlimit:4;stroke-dasharray:none;stroke-opacity:1"
             id="path1238" /></g><g
           id="g1240"
           transform="translate(197.459,515.9097)"><path
             d="m 0,0 -4.797,-0.384 -3.035,3.733 -2.176,-1.881 -7.817,7.818 c 1.237,1.503 1.981,3.428 1.981,5.527 0,2.173 -0.802,4.155 -2.118,5.681 l 7.71,7.71 0.076,-0.117 2.356,-1.42 3.023,3.743 4.797,-0.367 -2.626,4.031 -4.554,-1.907 1.74,5.104 -3.665,3.117 -0.245,-4.805 -4.097,-2.522 1.922,-2.922 -8.129,-8.128 c -1.395,0.95 -3.079,1.507 -4.895,1.507 -2.099,0 -4.024,-0.744 -5.528,-1.981 l -8.602,8.603 1.922,2.921 -4.098,2.522 -0.245,4.805 -3.665,-3.117 1.74,-5.104 -4.553,1.907 -2.626,-4.031 4.797,0.367 3.023,-3.743 2.354,1.42 0.077,0.117 8.33,-8.331 c -1.022,-1.427 -1.63,-3.17 -1.63,-5.06 0,-1.814 0.557,-3.499 1.507,-4.894 l -8.451,-8.45 -2.176,1.88 -3.035,-3.733 -4.797,0.384 2.613,-4.04 5.288,1.06 -2.486,-4.267 3.655,-3.129 0.261,4.803 4.106,2.51 -1.101,2.52 -0.606,0.523 8.246,8.247 c 1.526,-1.316 3.508,-2.118 5.68,-2.118 1.889,0 3.633,0.608 5.06,1.631 l 7.759,-7.76 -0.606,-0.523 -1.101,-2.52 4.105,-2.51 0.262,-4.803 3.654,3.129 -2.485,4.267 5.288,-1.06 z"
             style="fill:#34539d;fill-opacity:1;fill-rule:nonzero;stroke:none"
             id="path1242" /></g><g
           id="g1244"
           transform="translate(197.459,515.9097)"><path
             d="m 0,0 -4.797,-0.384 -3.035,3.733 -2.176,-1.881 -7.817,7.818 c 1.237,1.503 1.981,3.428 1.981,5.527 0,2.173 -0.802,4.155 -2.118,5.681 l 7.71,7.71 0.076,-0.117 2.356,-1.42 3.023,3.743 4.797,-0.367 -2.626,4.031 -4.554,-1.907 1.74,5.104 -3.665,3.117 -0.245,-4.805 -4.097,-2.522 1.922,-2.922 -8.129,-8.128 c -1.395,0.95 -3.079,1.507 -4.895,1.507 -2.099,0 -4.024,-0.744 -5.528,-1.981 l -8.602,8.603 1.922,2.921 -4.098,2.522 -0.245,4.805 -3.665,-3.117 1.74,-5.104 -4.553,1.907 -2.626,-4.031 4.797,0.367 3.023,-3.743 2.354,1.42 0.077,0.117 8.33,-8.331 c -1.022,-1.427 -1.63,-3.17 -1.63,-5.06 0,-1.814 0.557,-3.499 1.507,-4.894 l -8.451,-8.45 -2.176,1.88 -3.035,-3.733 -4.797,0.384 2.613,-4.04 5.288,1.06 -2.486,-4.267 3.655,-3.129 0.261,4.803 4.106,2.51 -1.101,2.52 -0.606,0.523 8.246,8.247 c 1.526,-1.316 3.508,-2.118 5.68,-2.118 1.889,0 3.633,0.608 5.06,1.631 l 7.759,-7.76 -0.606,-0.523 -1.101,-2.52 4.105,-2.51 0.262,-4.803 3.654,3.129 -2.485,4.267 5.288,-1.06 z"
             style="fill:none;stroke:#1a171b;stroke-width:0.512;stroke-linecap:butt;stroke-linejoin:miter;stroke-miterlimit:4;stroke-dasharray:none;stroke-opacity:1"
             id="path1246" /></g><g
           id="g1248"
           transform="translate(262.2876,699.0342)"><path
             d="m 0,0 -12.155,4.863 12.049,4.97 z"
             style="fill:#1a171b;fill-opacity:1;fill-rule:nonzero;stroke:none"
             id="path1250" /></g><g
           id="g1252"
           transform="translate(262.2876,699.0342)"><path
             d="m 0,0 -12.155,4.863 12.049,4.97 z"
             style="fill:none;stroke:#1a171b;stroke-width:0.423;stroke-linecap:butt;stroke-linejoin:miter;stroke-miterlimit:4;stroke-dasharray:none;stroke-opacity:1"
             id="path1254" /></g><g
           id="g1256"
           transform="translate(333.7871,699.0342)"><path
             d="m 0,0 -12.154,4.863 12.049,4.97 z"
             style="fill:#1a171b;fill-opacity:1;fill-rule:nonzero;stroke:none"
             id="path1258" /></g><g
           id="g1260"
           transform="translate(333.7871,699.0342)"><path
             d="m 0,0 -12.154,4.863 12.049,4.97 z"
             style="fill:none;stroke:#1a171b;stroke-width:0.423;stroke-linecap:butt;stroke-linejoin:miter;stroke-miterlimit:4;stroke-dasharray:none;stroke-opacity:1"
             id="path1262" /></g><g
           id="g1264"
           transform="translate(398.5371,699.0342)"><path
             d="m 0,0 -12.154,4.863 12.049,4.97 z"
             style="fill:#1a171b;fill-opacity:1;fill-rule:nonzero;stroke:none"
             id="path1266" /></g><g
           id="g1268"
           transform="translate(398.5371,699.0342)"><path
             d="m 0,0 -12.154,4.863 12.049,4.97 z"
             style="fill:none;stroke:#1a171b;stroke-width:0.423;stroke-linecap:butt;stroke-linejoin:miter;stroke-miterlimit:4;stroke-dasharray:none;stroke-opacity:1"
             id="path1270" /></g><g
           id="g1272"
           transform="translate(443.8291,679.873)"><path
             d="M 0,0 12.155,4.862 0.105,9.833 Z"
             style="fill:#1a171b;fill-opacity:1;fill-rule:nonzero;stroke:none"
             id="path1274" /></g><g
           id="g1276"
           transform="translate(443.8291,679.873)"><path
             d="M 0,0 12.155,4.862 0.105,9.833 Z"
             style="fill:none;stroke:#1a171b;stroke-width:0.423;stroke-linecap:butt;stroke-linejoin:miter;stroke-miterlimit:4;stroke-dasharray:none;stroke-opacity:1"
             id="path1278" /></g><g
           id="g1280"
           transform="translate(443.8291,664.0752)"><path
             d="M 0,0 12.155,4.863 0.105,9.833 Z"
             style="fill:#1a171b;fill-opacity:1;fill-rule:nonzero;stroke:none"
             id="path1282" /></g><g
           id="g1284"
           transform="translate(443.8291,664.0752)"><path
             d="M 0,0 12.155,4.863 0.105,9.833 Z"
             style="fill:none;stroke:#1a171b;stroke-width:0.423;stroke-linecap:butt;stroke-linejoin:miter;stroke-miterlimit:4;stroke-dasharray:none;stroke-opacity:1"
             id="path1286" /></g><g
           id="g1288"
           transform="translate(443.8291,652.2271)"><path
             d="M 0,0 12.155,4.863 0.105,9.833 Z"
             style="fill:#1a171b;fill-opacity:1;fill-rule:nonzero;stroke:none"
             id="path1290" /></g><g
           id="g1292"
           transform="translate(443.8291,652.2271)"><path
             d="M 0,0 12.155,4.863 0.105,9.833 Z"
             style="fill:none;stroke:#1a171b;stroke-width:0.423;stroke-linecap:butt;stroke-linejoin:miter;stroke-miterlimit:4;stroke-dasharray:none;stroke-opacity:1"
             id="path1294" /></g><g
           id="g1296"
           transform="translate(440.8672,641.3667)"><path
             d="M 0,0 12.154,4.862 0.105,9.833 Z"
             style="fill:#1a171b;fill-opacity:1;fill-rule:nonzero;stroke:none"
             id="path1298" /></g><g
           id="g1300"
           transform="translate(440.8672,641.3667)"><path
             d="M 0,0 12.154,4.862 0.105,9.833 Z"
             style="fill:none;stroke:#1a171b;stroke-width:0.423;stroke-linecap:butt;stroke-linejoin:miter;stroke-miterlimit:4;stroke-dasharray:none;stroke-opacity:1"
             id="path1302" /></g><g
           id="g1304"
           transform="translate(429.3359,636.4937)"><path
             d="M 0,0 4.862,-12.155 9.833,-0.106 Z"
             style="fill:#1a171b;fill-opacity:1;fill-rule:nonzero;stroke:none"
             id="path1306" /></g><g
           id="g1308"
           transform="translate(429.3359,636.4937)"><path
             d="M 0,0 4.862,-12.155 9.833,-0.106 Z"
             style="fill:none;stroke:#1a171b;stroke-width:0.423;stroke-linecap:butt;stroke-linejoin:miter;stroke-miterlimit:4;stroke-dasharray:none;stroke-opacity:1"
             id="path1310" /></g><g
           id="g1312"
           transform="translate(276.8823,549.4048)"><path
             d="M 0,0 C 0,2.285 -0.725,4.396 -1.948,6.131 L 25.307,33.386 22.721,35.971 -4.533,8.717 c -0.972,0.684 -2.065,1.205 -3.237,1.538 v 155.831 h -4.189 V 10.578 c -1.786,-0.219 -3.436,-0.873 -4.837,-1.861 L -44.051,35.971 -46.636,33.386 -19.382,6.131 C -20.605,4.396 -21.33,2.284 -21.33,0 c 0,-2.285 0.725,-4.396 1.948,-6.132 l -27.254,-27.254 2.585,-2.586 27.254,27.254 c 1.736,-1.223 3.848,-1.948 6.132,-1.948 2.285,0 4.397,0.725 6.132,1.948 l 27.254,-27.254 2.586,2.586 -27.254,27.254 C -0.725,-4.397 0,-2.285 0,0"
             style="fill:#73b220;fill-opacity:1;fill-rule:nonzero;stroke:none"
             id="path1314" /></g><g
           id="g1316"
           transform="translate(276.8823,549.4048)"><path
             d="M 0,0 C 0,2.285 -0.725,4.396 -1.948,6.131 L 25.307,33.386 22.721,35.971 -4.533,8.717 c -0.972,0.684 -2.065,1.205 -3.237,1.538 v 155.831 h -4.189 V 10.578 c -1.786,-0.219 -3.436,-0.873 -4.837,-1.861 L -44.051,35.971 -46.636,33.386 -19.382,6.131 C -20.605,4.396 -21.33,2.284 -21.33,0 c 0,-2.285 0.725,-4.396 1.948,-6.132 l -27.254,-27.254 2.585,-2.586 27.254,27.254 c 1.736,-1.223 3.848,-1.948 6.132,-1.948 2.285,0 4.397,0.725 6.132,1.948 l 27.254,-27.254 2.586,2.586 -27.254,27.254 C -0.725,-4.397 0,-2.285 0,0 Z"
             style="fill:none;stroke:#1a171b;stroke-width:0.466;stroke-linecap:butt;stroke-linejoin:miter;stroke-miterlimit:4;stroke-dasharray:none;stroke-opacity:1"
             id="path1318" /></g><g
           id="g1320"
           transform="translate(418.4873,597.0112)"><path
             d="M 0,0 V -264.549"
             style="fill:none;stroke:#f49e29;stroke-width:2;stroke-linecap:butt;stroke-linejoin:miter;stroke-miterlimit:4;stroke-dasharray:none;stroke-opacity:1"
             id="path1322" /></g><g
           id="g1324"
           transform="translate(458.96,598.3965)"><path
             d="M 0,0 V -162.279"
             style="fill:#b52684;fill-opacity:1;fill-rule:nonzero;stroke:#b52684;stroke-width:2;stroke-linecap:butt;stroke-linejoin:miter;stroke-miterlimit:4;stroke-dasharray:none;stroke-opacity:1"
             id="path1326" /></g><g
           id="g1328"
           transform="translate(443.8252,742.3789)"><path
             d="m 0,0 h -2.542 l 0.003,-34.864 h -1.546 l 0.002,36.38 h -2.54 l 0.001,-43.635 1.834,10e-4 0.003,-41.758 h -2.366 l 0.003,37.843 -2.541,-10e-4 10e-4,-43.833 2.45,0.001 0.001,-12.395 -8.699,-0.001 v 19.975 h 2.249 v 54.064 l 2.449,0.002 0.002,23.926 h -2.54 l 10e-4,-19.001 h -1.343 l 10e-4,41.486 -2.54,-0.002 0.002,-46.158 h 1.428 l 0.001,-49.843 h -1.956 v 25.715 h -2.538 v -31.706 h 2.246 v -26.344 l -7.88,-0.001 10e-4,8.598 2.397,0.001 0.002,65.864 -2.54,-10e-4 v -61.831 h -2.259 l 0.001,75.159 2.245,0.001 0.001,42.895 -2.539,-10e-4 v -37.958 h -2.109 l 0.002,37.959 -2.54,-10e-4 0.002,-42.895 2.397,0.001 0.002,-79.319 h 2.399 v -8.472 h -6.654 l 10e-4,39.735 2.349,0.001 v 36.056 l -2.538,-10e-4 v -31.327 h -2.265 l 0.003,33.609 h 2.193 l 0.002,45.909 -2.54,-10e-4 v -39.096 h -1.904 l 10e-4,25.012 -2.539,-0.001 v -33.402 l 2.246,10e-4 10e-4,-37.518 2.451,10e-4 0.002,-40.422 h 0.347 v -1.696 h 11.271 v -4.979 c -6.789,-0.719 -12.078,-6.46 -12.078,-13.439 0,-7.466 6.052,-13.519 13.519,-13.519 7.465,0 13.517,6.053 13.517,13.519 0,6.899 -5.171,12.58 -11.847,13.404 v 5.014 l 6.851,-0.001 v 0.15 l 0.567,0.001 v 8.523 l 10.563,-0.001 -10e-4,0.8 h 0.673 l 0.002,14.455 2.451,10e-4 0.002,49.264 h 2.244 z"
             style="fill:#f49e29;fill-opacity:1;fill-rule:nonzero;stroke:none"
             id="path1330" /></g><g
           id="g1332"
           transform="translate(443.8252,742.3789)"><path
             d="m 0,0 h -2.542 l 0.003,-34.864 h -1.546 l 0.002,36.38 h -2.54 l 0.001,-43.635 1.834,10e-4 0.003,-41.758 h -2.366 l 0.003,37.843 -2.541,-10e-4 10e-4,-43.833 2.45,0.001 0.001,-12.395 -8.699,-0.001 v 19.975 h 2.249 v 54.064 l 2.449,0.002 0.002,23.926 h -2.54 l 10e-4,-19.001 h -1.343 l 10e-4,41.486 -2.54,-0.002 0.002,-46.158 h 1.428 l 0.001,-49.843 h -1.956 v 25.715 h -2.538 v -31.706 h 2.246 v -26.344 l -7.88,-0.001 10e-4,8.598 2.397,0.001 0.002,65.864 -2.54,-10e-4 v -61.831 h -2.259 l 0.001,75.159 2.245,0.001 0.001,42.895 -2.539,-10e-4 v -37.958 h -2.109 l 0.002,37.959 -2.54,-10e-4 0.002,-42.895 2.397,0.001 0.002,-79.319 h 2.399 v -8.472 h -6.654 l 10e-4,39.735 2.349,0.001 v 36.056 l -2.538,-10e-4 v -31.327 h -2.265 l 0.003,33.609 h 2.193 l 0.002,45.909 -2.54,-10e-4 v -39.096 h -1.904 l 10e-4,25.012 -2.539,-0.001 v -33.402 l 2.246,10e-4 10e-4,-37.518 2.451,10e-4 0.002,-40.422 h 0.347 v -1.696 h 11.271 v -4.979 c -6.789,-0.719 -12.078,-6.46 -12.078,-13.439 0,-7.466 6.052,-13.519 13.519,-13.519 7.465,0 13.517,6.053 13.517,13.519 0,6.899 -5.171,12.58 -11.847,13.404 v 5.014 l 6.851,-0.001 v 0.15 l 0.567,0.001 v 8.523 l 10.563,-0.001 -10e-4,0.8 h 0.673 l 0.002,14.455 2.451,10e-4 0.002,49.264 h 2.244 z"
             style="fill:none;stroke:#1a171b;stroke-width:0.371;stroke-linecap:butt;stroke-linejoin:miter;stroke-miterlimit:4;stroke-dasharray:none;stroke-opacity:1"
             id="path1334" /></g><g
           id="g1336"
           transform="translate(455.9844,684.7354)"><path
             d="M 0,0 V -34.997"
             style="fill:none;stroke:#b52684;stroke-width:2;stroke-linecap:butt;stroke-linejoin:miter;stroke-miterlimit:4;stroke-dasharray:none;stroke-opacity:1"
             id="path1338" /></g><g
           id="g1340"
           transform="translate(455.9844,650.1787)"><path
             d="M 0,0 -2.963,-3.95"
             style="fill:none;stroke:#b52684;stroke-width:1.481;stroke-linecap:butt;stroke-linejoin:miter;stroke-miterlimit:4;stroke-dasharray:none;stroke-opacity:1"
             id="path1342" /></g><g
           id="g1344"
           transform="translate(453.0215,646.229)"><path
             d="M 0,0 -18.732,-21.981"
             style="fill:none;stroke:#b52684;stroke-width:2;stroke-linecap:butt;stroke-linejoin:miter;stroke-miterlimit:4;stroke-dasharray:none;stroke-opacity:1"
             id="path1346" /></g><g
           id="g1348"
           transform="translate(458.96,598.3965)"><path
             d="M 0,0 -24.671,25.852"
             style="fill:none;stroke:#b52684;stroke-width:2;stroke-linecap:butt;stroke-linejoin:miter;stroke-miterlimit:4;stroke-dasharray:none;stroke-opacity:1"
             id="path1350" /></g><g
           id="g1352"
           transform="translate(147.0454,509.7412)"><path
             d="M 0,0 -5.156,-12.034 6.878,-7.028 Z"
             style="fill:#1a171b;fill-opacity:1;fill-rule:nonzero;stroke:none"
             id="path1354" /></g><g
           id="g1356"
           transform="translate(147.0454,509.7412)"><path
             d="M 0,0 -5.156,-12.034 6.878,-7.028 Z"
             style="fill:none;stroke:#1a171b;stroke-width:2;stroke-linecap:butt;stroke-linejoin:miter;stroke-miterlimit:4;stroke-dasharray:none;stroke-opacity:1"
             id="path1358" /></g><g
           id="g1360"
           transform="translate(144.9443,499.9746)"><path
             d="M 0,0 -18.119,-18.119"
             style="fill:none;stroke:#1a171b;stroke-width:2;stroke-linecap:butt;stroke-linejoin:miter;stroke-miterlimit:4;stroke-dasharray:none;stroke-opacity:1"
             id="path1362" /></g><g
           id="g1364"
           transform="translate(127.2847,436.1172)"><path
             d="M 0,0 V 46.76"
             style="fill:none;stroke:#1a171b;stroke-width:2;stroke-linecap:butt;stroke-linejoin:miter;stroke-miterlimit:4;stroke-dasharray:none;stroke-opacity:1"
             id="path1366" /></g><g
           id="g1368"
           transform="translate(199.4307,511.7412)"><path
             d="M 0,0 5.156,-12.034 -6.878,-7.028 Z"
             style="fill:#1a171b;fill-opacity:1;fill-rule:nonzero;stroke:none"
             id="path1370" /></g><g
           id="g1372"
           transform="translate(199.4307,511.7412)"><path
             d="M 0,0 5.156,-12.034 -6.878,-7.028 Z"
             style="fill:none;stroke:#1a171b;stroke-width:2;stroke-linecap:butt;stroke-linejoin:miter;stroke-miterlimit:4;stroke-dasharray:none;stroke-opacity:1"
             id="path1374" /></g><g
           id="g1376"
           transform="translate(201.5317,501.9746)"><path
             d="M 0,0 18.119,-18.119"
             style="fill:none;stroke:#1a171b;stroke-width:2;stroke-linecap:butt;stroke-linejoin:miter;stroke-miterlimit:4;stroke-dasharray:none;stroke-opacity:1"
             id="path1378" /></g><g
           id="g1380"
           transform="translate(219.1914,436.1172)"><path
             d="M 0,0 V 48.76"
             style="fill:none;stroke:#1a171b;stroke-width:2;stroke-linecap:butt;stroke-linejoin:miter;stroke-miterlimit:4;stroke-dasharray:none;stroke-opacity:1"
             id="path1382" /></g><g
           id="g1384"
           transform="translate(164.8022,632.3096)"><path
             d="M 0,0 V 38.142 L -8.242,25.305"
             style="fill:none;stroke:#1a171b;stroke-width:1;stroke-linecap:butt;stroke-linejoin:miter;stroke-miterlimit:4;stroke-dasharray:none;stroke-opacity:1"
             id="path1386" /></g><g
           id="g1388"
           transform="translate(468.5137,446.4263)"><path
             d="M 0,0 V 38.142 L 8.242,25.305"
             style="fill:none;stroke:#1a171b;stroke-width:1;stroke-linecap:butt;stroke-linejoin:miter;stroke-miterlimit:4;stroke-dasharray:none;stroke-opacity:1"
             id="path1390" /></g><g
           id="g1392"
           transform="translate(188.5664,699.4497)"><path
             d="M 0,0 H 38.142 L 25.305,-8.242"
             style="fill:none;stroke:#1a171b;stroke-width:1;stroke-linecap:butt;stroke-linejoin:miter;stroke-miterlimit:4;stroke-dasharray:none;stroke-opacity:1"
             id="path1394" /></g><g
           id="g1396"
           transform="translate(244.3906,556.625)"><path
             d="m 0,0 h -28.403 l 9.56,6.138"
             style="fill:none;stroke:#1a171b;stroke-width:1;stroke-linecap:butt;stroke-linejoin:miter;stroke-miterlimit:4;stroke-dasharray:none;stroke-opacity:1"
             id="path1398" /></g><g
           id="g1400"
           transform="translate(410.9805,548.3672)"><path
             d="m 0,0 v -38.142 l -8.242,12.837"
             style="fill:none;stroke:#1a171b;stroke-width:1;stroke-linecap:butt;stroke-linejoin:miter;stroke-miterlimit:4;stroke-dasharray:none;stroke-opacity:1"
             id="path1402" /></g></g></g><text
       transform="matrix(1,0,0,-1,72.5435,556.2979)"
       style="font-variant:normal;font-weight:normal;font-stretch:normal;font-size:14px;font-family:Arial;-inkscape-font-specification:ArialMT;writing-mode:lr-tb;fill:#1a171b;fill-opacity:1;fill-rule:nonzero;stroke:none"
       id="text1422"><tspan
         x="0 7 14.784 17.892 25.676001 32.675999 35.784 43.568001 51.352001 59.136002 66.136002"
         y="0"
         sodipodi:role="line"
         id="tspan1404">coincidence</tspan><tspan
         x="8.5539999 16.337999 24.122 28.014 35.798 42.798 46.689999 49.798 57.582001"
         y="16.799999"
         sodipodi:role="line"
         id="tspan1406">detection</tspan><tspan
         x="2.7160001 7.3779998 15.162 22.162001 29.945999 37.73 45.514 52.514 55.622002 63.405998"
         y="33.599998"
         sodipodi:role="line"
         id="tspan1408">(expansion</tspan><tspan
         x="7.7839999 12.446 20.23 27.23 35.014 42.798 45.905998 53.689999 61.473999"
         y="50.400002"
         sodipodi:role="line"
         id="tspan1410">recoding)</tspan><tspan
         x="227.82201 235.606 243.39 246.498"
         y="1.26"
         sodipodi:role="line"
         id="tspan1412">gain</tspan><tspan
         x="220.052 227.052 234.836 242.62 246.51199 251.174 258.95801"
         y="18.059999"
         sodipodi:role="line"
         id="tspan1414">control</tspan><tspan
         x="238.588 246.37199 254.15601 261.94 269.724 273.616 276.724 283.724"
         y="-206.14999"
         sodipodi:role="line"
         id="tspan1416">negative</tspan><tspan
         x="239.37199 246.37199 253.37199 261.15601 268.94 276.724 280.616 283.724"
         y="-189.35001"
         sodipodi:role="line"
         id="tspan1418">synaptic</tspan><tspan
         x="241.31799 251.42599 259.20999 262.31799 270.10199 277.88599 281.77802"
         y="-172.55"
         sodipodi:role="line"
         id="tspan1420">weights</tspan></text><text
       transform="matrix(1,0,0,-1,382.0361,805.3359)"
       style="font-variant:normal;font-weight:normal;font-stretch:normal;font-size:21px;font-family:Arial;-inkscape-font-specification:ArialMT;writing-mode:lr-tb;fill:#1a171b;fill-opacity:1;fill-rule:nonzero;stroke:none"
       id="text1428"><tspan
         x="0 11.676 23.351999 35.028 46.703999 52.542 57.203999 67.704002"
         y="0"
         sodipodi:role="line"
         id="tspan1424">adaptive</tspan><tspan
         x="5.8590002 11.697 16.358999 21.021 26.858999 38.535 45.528 50.189999 61.866001"
         y="25.200001"
         sodipodi:role="line"
         id="tspan1426">filtering</tspan></text><g
       id="g1430"><g
         id="g1432"
         clip-path="url(#clipPath1436)"><g
           id="g1438"
           transform="translate(333.0645,656.1489)"><path
             d="M 0,0 C 65.473,3.943 58.969,-60.567 79.609,-62"
             style="fill:none;stroke:#9f7742;stroke-width:2;stroke-linecap:butt;stroke-linejoin:miter;stroke-miterlimit:4;stroke-dasharray:none;stroke-opacity:1"
             id="path1440" /></g><g
           id="g1442"
           transform="translate(400.0986,608.4595)"><path
             d="m 0,0 c 0,-1.222 0.991,-2.213 2.214,-2.213 1.222,0 2.213,0.991 2.213,2.213 0,1.222 -0.991,2.212 -2.213,2.212 C 0.991,2.212 0,1.222 0,0"
             style="fill:#1a171b;fill-opacity:1;fill-rule:nonzero;stroke:none"
             id="path1444" /></g><g
           id="g1446"
           transform="translate(400.0986,608.4595)"><path
             d="m 0,0 c 0,-1.222 0.991,-2.213 2.214,-2.213 1.222,0 2.213,0.991 2.213,2.213 0,1.222 -0.991,2.212 -2.213,2.212 C 0.991,2.212 0,1.222 0,0 Z"
             style="fill:none;stroke:#1a171b;stroke-width:0.741;stroke-linecap:butt;stroke-linejoin:miter;stroke-miterlimit:4;stroke-dasharray:none;stroke-opacity:1"
             id="path1448" /></g><g
           id="g1450"
           transform="translate(403.5264,600.6099)"><path
             d="m 0,0 c 0,-1.222 0.991,-2.213 2.214,-2.213 1.222,0 2.213,0.991 2.213,2.213 0,1.222 -0.991,2.212 -2.213,2.212 C 0.991,2.212 0,1.222 0,0"
             style="fill:#1a171b;fill-opacity:1;fill-rule:nonzero;stroke:none"
             id="path1452" /></g><g
           id="g1454"
           transform="translate(403.5264,600.6099)"><path
             d="m 0,0 c 0,-1.222 0.991,-2.213 2.214,-2.213 1.222,0 2.213,0.991 2.213,2.213 0,1.222 -0.991,2.212 -2.213,2.212 C 0.991,2.212 0,1.222 0,0 Z"
             style="fill:none;stroke:#1a171b;stroke-width:0.741;stroke-linecap:butt;stroke-linejoin:miter;stroke-miterlimit:4;stroke-dasharray:none;stroke-opacity:1"
             id="path1456" /></g><g
           id="g1458"
           transform="translate(410.46,595.3623)"><path
             d="m 0,0 c 0,-1.222 0.991,-2.213 2.214,-2.213 1.222,0 2.213,0.991 2.213,2.213 0,1.222 -0.991,2.212 -2.213,2.212 C 0.991,2.212 0,1.222 0,0"
             style="fill:#1a171b;fill-opacity:1;fill-rule:nonzero;stroke:none"
             id="path1460" /></g><g
           id="g1462"
           transform="translate(410.46,595.3623)"><path
             d="m 0,0 c 0,-1.222 0.991,-2.213 2.214,-2.213 1.222,0 2.213,0.991 2.213,2.213 0,1.222 -0.991,2.212 -2.213,2.212 C 0.991,2.212 0,1.222 0,0 Z"
             style="fill:none;stroke:#1a171b;stroke-width:0.741;stroke-linecap:butt;stroke-linejoin:miter;stroke-miterlimit:4;stroke-dasharray:none;stroke-opacity:1"
             id="path1464" /></g><g
           id="g1466"
           transform="translate(344.2598,651.4961)"><path
             d="M 0,0 C 1.081,1.534 1.721,3.4 1.721,5.418 1.721,7.437 1.08,9.302 0,10.835 L 14.364,25.198 12.077,27.484 -2.285,13.121 c -0.86,0.605 -1.824,1.066 -2.86,1.359 V 63.199 H -8.847 V 14.766 c -1.578,-0.193 -3.036,-0.771 -4.275,-1.644 l -15.256,15.255 -2.284,-2.286 15.254,-15.255 c -1.08,-1.533 -1.721,-3.399 -1.721,-5.418 0,-2.019 0.641,-3.886 1.721,-5.419 l -14.578,-14.579 2.285,-2.286 14.578,14.579 c 1.534,-1.081 3.4,-1.722 5.418,-1.722 2.019,0 3.887,0.641 5.42,1.722 l 14.643,-14.643 2.288,2.285 z"
             style="fill:#9f7742;fill-opacity:1;fill-rule:nonzero;stroke:none"
             id="path1468" /></g><g
           id="g1470"
           transform="translate(344.2598,651.4961)"><path
             d="M 0,0 C 1.081,1.534 1.721,3.4 1.721,5.418 1.721,7.437 1.08,9.302 0,10.835 L 14.364,25.198 12.077,27.484 -2.285,13.121 c -0.86,0.605 -1.824,1.066 -2.86,1.359 V 63.199 H -8.847 V 14.766 c -1.578,-0.193 -3.036,-0.771 -4.275,-1.644 l -15.256,15.255 -2.284,-2.286 15.254,-15.255 c -1.08,-1.533 -1.721,-3.399 -1.721,-5.418 0,-2.019 0.641,-3.886 1.721,-5.419 l -14.578,-14.579 2.285,-2.286 14.578,14.579 c 1.534,-1.081 3.4,-1.722 5.418,-1.722 2.019,0 3.887,0.641 5.42,1.722 l 14.643,-14.643 2.288,2.285 z"
             style="fill:none;stroke:#1a171b;stroke-width:0.466;stroke-linecap:butt;stroke-linejoin:miter;stroke-miterlimit:4;stroke-dasharray:none;stroke-opacity:1"
             id="path1472" /></g></g></g><text
       transform="matrix(1,0,0,-1,109.8906,408.6514)"
       style="font-variant:normal;font-weight:normal;font-stretch:normal;font-size:21px;font-family:Arial;-inkscape-font-specification:ArialMT;writing-mode:lr-tb;fill:#1a171b;fill-opacity:1;fill-rule:nonzero;stroke:none"
       id="text1488"><tspan
         x="0 14.007 25.683001 37.359001 47.859001 59.535 66.528 71.190002 88.682999 100.359 106.197 117.873"
         y="0"
         sodipodi:role="line"
         id="tspan1474">Sensorimotor</tspan><tspan
         x="28.580999 39.081001 50.757 62.432999 68.271004 79.946999 90.446999"
         y="25.200001"
         sodipodi:role="line"
         id="tspan1476">context</tspan><tspan
         x="319.599 324.26099 335.93701 346.43701 352.27499 359.26801 370.944 381.444 387.28201 391.944 402.444"
         y="0"
         sodipodi:role="line"
         id="tspan1478">instructive</tspan><tspan
         x="339.423 349.923 354.58499 366.26099 377.93701 389.61301"
         y="25.200001"
         sodipodi:role="line"
         id="tspan1480">signal</tspan><tspan
         x="337.70099 344.694 356.37 363.36301 370.35599 382.03201 389.02499"
         y="50.400002"
         sodipodi:role="line"
         id="tspan1482">(error)</tspan><tspan
         x="266.57401 271.23599 282.91199 294.58801 299.25 310.92599 315.58801 321.42599 333.10199 340.095"
         y="101.199"
         sodipodi:role="line"
         id="tspan1484">inhibitory</tspan><tspan
         x="279.405 291.08099 302.75699 308.595 320.271 331.94699"
         y="126.399"
         sodipodi:role="line"
         id="tspan1486">output</tspan></text><text
       transform="matrix(1,0,0,-1,129.1896,236.7454)"
       style="font-variant:normal;font-weight:normal;font-stretch:normal;font-size:21px;font-family:Arial;-inkscape-font-specification:ArialMT;writing-mode:lr-tb;fill:#1a171b;fill-opacity:1;fill-rule:nonzero;stroke:none"
       id="text1492"><tspan
         x="0 4.6620002 16.337999 26.837999 32.675999 39.668999 51.345001 61.845001 67.682999 72.345001 82.845001 94.521004 100.359 110.859 115.521 127.197 138.873 150.549 155.211 161.049 182.049 187.88699 194.88 206.556 218.23199 229.908 240.408 252.084 263.76001 269.59799 281.27399 292.95001 298.78799 310.46399 322.14001"
         y="0"
         sodipodi:role="line"
         id="tspan1490">instructive signal → reduced output</tspan></text></g></svg>
